<?xml version="1.0" standalone="no"?>
<!DOCTYPE svg PUBLIC "-//W3C//DTD SVG 20010904//EN"
 "http://www.w3.org/TR/2001/REC-SVG-20010904/DTD/svg10.dtd">
<svg version="1.0" xmlns="http://www.w3.org/2000/svg"
 width="645.000000pt" height="387.000000pt" viewBox="0 0 645.000000 387.000000"
 preserveAspectRatio="xMidYMid meet">

<g transform="translate(0.000000,387.000000) scale(0.100000,-0.100000)"
fill="#000000" stroke="none">
<path d="M3294 3079 c-28 -10 -68 -34 -88 -52 l-38 -32 84 -1 c60 -1 100 -7
143 -23 200 -75 195 -74 325 -79 l125 -4 -93 61 c-118 78 -193 116 -267 136
-77 20 -129 18 -191 -6z m116 -35 c0 -8 -5 -12 -10 -9 -6 4 -8 11 -5 16 9 14
15 11 15 -7z m100 -24 c0 -5 -2 -10 -4 -10 -3 0 -8 5 -11 10 -3 6 -1 10 4 10
6 0 11 -4 11 -10z"/>
<path d="M3091 2983 c0 -5 24 -23 52 -41 49 -32 50 -32 27 -7 -26 28 -80 61
-79 48z"/>
<path d="M2776 2954 c-21 -21 -21 -21 16 -44 30 -18 32 -18 44 -2 10 14 9 21
-8 40 -25 26 -32 27 -52 6z"/>
<path d="M3834 2952 c10 -12 24 -19 30 -15 6 3 8 3 4 -1 -3 -4 4 -28 18 -53
13 -25 24 -57 24 -71 0 -24 1 -24 18 -9 26 23 39 21 58 -8 17 -26 17 -26 38
-6 12 11 40 28 64 39 l44 19 -32 12 c-23 8 -38 8 -53 0 -16 -9 -19 -9 -14 4 4
11 -6 20 -36 32 -23 9 -46 22 -50 28 -5 7 -7 3 -4 -10 3 -13 1 -23 -4 -23 -5
0 -9 4 -9 9 0 11 -55 52 -73 55 -7 1 -19 6 -27 11 -9 5 -8 0 4 -13z"/>
<path d="M2959 2934 c-12 -15 -11 -16 10 -9 15 4 21 3 17 -3 -3 -5 2 -13 12
-17 25 -9 82 -49 82 -57 0 -4 -21 6 -46 22 -65 41 -97 46 -133 21 -16 -12 -41
-21 -55 -21 -26 0 -35 -13 -16 -25 6 -4 10 -12 9 -18 -3 -26 2 -38 13 -31 7 4
8 3 4 -4 -4 -6 9 -33 29 -60 49 -69 44 -76 -7 -11 -24 30 -46 56 -51 57 -4 2
-5 8 -1 13 3 5 0 9 -6 9 -6 0 -8 4 -5 10 3 6 -1 7 -10 4 -12 -5 -13 -9 -4 -20
9 -11 8 -14 -1 -14 -22 0 -3 -60 45 -142 25 -43 45 -80 45 -83 0 -2 -34 -4
-74 -4 -79 1 -96 -4 -96 -26 0 -26 111 -270 130 -286 11 -9 17 -19 14 -21 -7
-7 28 -3 47 6 9 4 29 9 45 11 16 2 31 4 34 5 3 1 87 1 188 0 123 -1 182 2 182
9 0 7 23 11 60 10 47 -1 58 -4 50 -14 -8 -9 -4 -11 15 -7 14 2 25 9 25 14 0 6
12 8 27 5 16 -3 40 3 62 15 147 82 233 154 271 228 25 48 25 57 3 57 -10 0
-179 1 -375 2 l-357 1 -22 58 c-28 73 -30 164 -5 212 10 19 23 38 29 41 10 7
-57 50 -106 68 -40 15 -62 14 -78 -5z m-102 -80 c-3 -3 -12 -4 -19 -1 -8 3 -5
6 6 6 11 1 17 -2 13 -5z"/>
<path d="M3661 2827 c-13 -6 -31 -23 -40 -37 -16 -25 -16 -25 18 3 46 38 50
28 7 -19 -28 -30 -32 -40 -20 -42 36 -8 61 9 88 58 l27 50 -28 0 c-15 0 -39
-6 -52 -13z"/>
<path d="M3480 2815 c0 -3 11 -23 25 -45 19 -30 32 -40 51 -40 26 0 26 8 -4
43 -15 17 -5 24 14 10 5 -5 -1 2 -14 15 -20 19 -72 31 -72 17z"/>
<path d="M3960 2790 c0 -5 0 -13 1 -16 0 -4 -5 -10 -13 -15 -10 -7 -10 -12 5
-26 16 -16 18 -16 33 -1 11 11 13 18 5 23 -6 3 -10 2 -9 -3 2 -6 0 -10 -4 -11
-23 -3 -28 0 -21 12 9 15 15 47 8 47 -3 0 -5 -4 -5 -10z"/>
<path d="M3802 2773 c-10 -10 -10 -17 -2 -31 11 -16 11 -16 6 1 -3 9 -1 17 4
17 6 0 10 -5 10 -11 0 -8 6 -7 17 2 9 8 14 9 11 4 -4 -6 0 -18 7 -28 8 -12 15
-14 20 -8 3 6 1 11 -6 11 -6 0 -9 8 -6 19 2 10 1 25 -4 32 -6 10 -9 11 -9 2 0
-7 -5 -13 -11 -13 -5 0 -8 4 -5 8 8 14 -19 10 -32 -5z"/>
<path d="M3920 2765 c-11 -13 -11 -18 0 -28 10 -9 11 -9 6 1 -4 7 -2 19 4 27
7 8 10 15 7 15 -2 0 -10 -7 -17 -15z"/>
<path d="M4027 2715 l-39 -22 26 -20 c14 -11 22 -24 18 -28 -4 -5 -1 -5 7 0
12 7 11 10 -2 20 -9 7 -13 16 -9 20 4 5 1 5 -5 1 -7 -4 -13 -2 -13 3 0 16 11
14 32 -6 13 -12 18 -13 18 -3 0 7 2 11 5 8 3 -3 1 -17 -4 -32 -10 -24 -9 -25
9 -13 11 6 17 13 12 15 -4 1 -7 16 -6 33 2 26 0 28 -14 17 -13 -12 -14 -10 -3
10 6 12 10 22 9 21 -2 0 -20 -11 -41 -24z"/>
<path d="M4130 2261 c0 -7 -3 -10 -7 -8 -5 3 -17 1 -28 -4 -19 -7 -18 -8 4 -8
16 -1 21 -5 17 -16 -3 -8 -3 -15 0 -15 7 0 25 52 19 58 -3 3 -5 0 -5 -7z"/>
<path d="M2104 1202 c-6 -4 -16 -17 -23 -30 -15 -28 -3 -50 55 -105 25 -23 35
-40 31 -51 -8 -20 -35 -21 -56 -2 -20 18 -47 5 -38 -18 17 -44 95 -44 123 -1
22 33 11 61 -44 112 -36 33 -44 45 -34 55 8 8 18 9 36 0 19 -8 27 -8 36 3 21
26 -54 59 -86 37z"/>
<path d="M2270 1101 c0 -96 1 -100 26 -120 15 -12 37 -21 49 -21 12 0 34 9 49
21 25 20 26 24 26 120 0 81 -3 99 -15 99 -12 0 -15 -15 -15 -72 0 -111 -14
-138 -61 -123 -17 6 -19 18 -19 101 0 87 -1 94 -20 94 -19 0 -20 -7 -20 -99z"/>
<path d="M2495 1085 c0 -101 2 -115 17 -115 13 0 18 11 20 47 3 44 5 48 35 54
46 9 63 26 63 64 0 45 -26 65 -86 65 l-49 0 0 -115z m93 53 c-2 -17 -10 -23
-28 -23 -18 0 -26 6 -28 23 -3 19 1 22 28 22 27 0 31 -3 28 -22z"/>
<path d="M2690 1085 l0 -115 65 0 c58 0 65 2 65 20 0 17 -7 20 -46 20 -45 0
-45 0 -42 33 3 30 6 32 46 35 28 2 42 8 42 17 0 9 -14 15 -42 17 -36 2 -44 7
-46 26 -3 20 1 22 42 22 39 0 46 3 46 20 0 18 -7 20 -65 20 l-65 0 0 -115z"/>
<path d="M2880 1085 c0 -108 1 -115 20 -115 17 0 20 7 20 51 0 42 2 49 13 40
8 -6 22 -29 32 -51 13 -29 24 -40 40 -40 l23 0 -26 48 -26 48 22 22 c26 26 28
59 6 90 -12 18 -25 22 -70 22 l-54 0 0 -115z m95 50 c0 -14 -8 -21 -27 -23
-24 -3 -28 0 -28 23 0 23 4 26 28 23 19 -2 27 -9 27 -23z"/>
<path d="M3105 1188 c-4 -13 -35 -200 -35 -212 0 -3 9 -6 19 -6 16 0 21 13 33
78 l14 77 25 -75 c19 -56 31 -76 45 -78 16 -2 24 9 43 68 12 39 26 68 31 65 4
-3 11 -32 15 -66 5 -38 12 -62 21 -66 8 -3 17 -3 20 0 3 3 -2 55 -12 116 -16
101 -20 111 -39 111 -18 0 -25 -13 -45 -76 -26 -83 -35 -95 -45 -62 -28 94
-49 138 -67 138 -10 0 -20 -6 -23 -12z"/>
<path d="M3451 1148 c-11 -29 -31 -81 -45 -115 l-25 -63 24 0 c16 0 25 7 29
25 6 23 11 25 60 25 49 0 54 -2 60 -25 4 -17 13 -25 27 -25 25 0 26 -5 -27
133 -32 83 -40 97 -60 97 -18 0 -27 -10 -43 -52z m70 -72 c3 -15 -2 -19 -24
-20 -37 -2 -40 4 -21 50 l16 38 13 -24 c7 -14 15 -34 16 -44z"/>
<path d="M3660 1085 c0 -107 1 -115 19 -115 17 0 20 8 23 53 l3 52 30 -52 c18
-32 37 -53 48 -53 21 0 21 0 -4 53 l-22 44 22 22 c25 25 27 58 5 89 -12 18
-25 22 -70 22 l-54 0 0 -115z m95 50 c0 -14 -8 -21 -27 -23 -24 -3 -28 0 -28
23 0 23 4 26 28 23 19 -2 27 -9 27 -23z"/>
<path d="M3870 1085 c0 -96 3 -115 15 -115 11 0 15 12 15 50 0 28 4 50 9 50 5
0 23 -22 41 -50 24 -38 38 -50 57 -50 24 0 23 1 -16 57 -23 31 -41 63 -41 70
0 8 16 35 36 59 36 44 36 44 11 44 -16 0 -33 -11 -51 -35 -15 -19 -31 -35 -37
-35 -5 0 -9 16 -9 35 0 24 -5 35 -15 35 -12 0 -15 -19 -15 -115z"/>
<path d="M4090 1085 l0 -115 60 0 c53 0 60 2 60 20 0 17 -7 20 -46 20 -45 0
-45 0 -42 33 3 30 6 32 46 35 28 2 42 8 42 17 0 9 -14 15 -42 17 -36 2 -44 7
-46 26 -3 20 1 22 42 22 39 0 46 3 46 20 0 18 -7 20 -60 20 l-60 0 0 -115z"/>
<path d="M4260 1180 c0 -13 7 -20 20 -20 19 0 20 -7 20 -95 0 -88 1 -95 20
-95 19 0 20 7 20 95 0 95 0 95 25 95 18 0 25 5 25 20 0 18 -7 20 -65 20 -58 0
-65 -2 -65 -20z"/>
</g>
</svg>
